PathFileType	4	(X/Y/Z)	C:\Users\adpatrick\OneDrive - nih.no\Desktop\WebApp1080sync\WebAppv0.1\fp22_m505_left 2_Sports2D\fp22_m505_left 2_Sports2D_m_person00.trc
DataRate	CameraRate	NumFrames	NumMarkers	Units	OrigDataRate	OrigDataStartFrame	OrigNumFrames
60	60	9	22	m	60	434	869
Frame#	Time	Hip			RHip			RKnee			RAnkle			RBigToe			RSmallToe			RHeel			LHip			LKnee			LAnkle			LBigToe			LSmallToe			LHeel			Neck			Head			Nose			RShoulder			RElbow			RWrist			LShoulder			LElbow			LWrist		
		X1	Y1	Z1	X2	Y2	Z2	X3	Y3	Z3	X4	Y4	Z4	X5	Y5	Z5	X6	Y6	Z6	X7	Y7	Z7	X8	Y8	Z8	X9	Y9	Z9	X10	Y10	Z10	X11	Y11	Z11	X12	Y12	Z12	X13	Y13	Z13	X14	Y14	Z14	X15	Y15	Z15	X16	Y16	Z16	X17	Y17	Z17	X18	Y18	Z18	X19	Y19	Z19	X20	Y20	Z20	X21	Y21	Z21	X22	Y22	Z22
434	7.233333333333333	0.7279333114788546	0.8184365047530191	0.0301	0.5975644127784694	0.8275940436178069	0.0301	0.5112524885814048	0.33046115913861607	0.0179	0.38908742829402565	-0.15516204307832737	0.023	0.5142164262194328	-0.2677158937046957	0.2179	0.4299686789811829	-0.2831942600291414	0.1804	0.34029756923826615	-0.2306542533453439	-0.0119	0.8295872496569276	0.830107014590607	-0.0301	1.0165776328382934	0.3936066786880841	-0.0179	1.019109067387105	-0.10017923511968141	0.023	1.1944444349974426	-0.2090075149895618	0.2179	1.2031739282633012	-0.18333983617263314	0.1804	0.9789835149832969	-0.177545333439603	-0.0119	0.9057458007263881	1.4495029298816042	-0.0008	1.0574658658724614	1.7417118424453988	0.0655	1.0795971152152692	1.5514016309784877	0.1076	0.6564234100953716	1.3632291409884647	-0.01275	0.5386180881818144	1.0125999595891293	0.0119	0.6210853433482637	0.7128344316490359	0.0002	1.0466841892716274	1.315185155394985	0.01275	1.0609896240913634	0.9950253835912611	-0.0119	1.1391399189069054	0.7165166097746409	-0.0002
435	7.25	0.7286702661314455	0.8178851428913724	0.0301	0.5978610516391115	0.8276870997178591	0.0301	0.5113626019114021	0.33119995962052573	0.0179	0.3889336558496785	-0.15476151777755426	0.023	0.5142647981295799	-0.26724082214853956	0.2179	0.4303460560773268	-0.2831188709355854	0.1804	0.34052042002700167	-0.23054344386286707	-0.0119	0.8302093047532161	0.8292016844916275	-0.0301	1.0169120325379681	0.39341685122428144	-0.0179	1.019361507564608	-0.0996315811380828	0.023	1.1942902402864481	-0.20773967945088953	0.2179	1.2038043193500123	-0.18253284048434829	0.1804	0.9792028430517565	-0.17716602465144948	-0.0119	0.9069262515724756	1.4484514325819442	-0.0008	1.058499922555555	1.7409357734097126	0.0655	1.081291177849426	1.5510549400110158	0.1076	0.6576607001235694	1.3629244620754466	-0.01275	0.5388671098201627	1.012303601614863	0.0119	0.6210358912782356	0.7124723785839876	0.0002	1.0484969928886705	1.314277616673742	0.01275	1.0624066845513904	0.9943144090431387	-0.0119	1.1396768395863026	0.7155965597034183	-0.0002
436	7.266666666666667	0.7295205947691732	0.8181922864001449	0.0301	0.5985026456844266	0.8284028429115711	0.0301	0.5112923175431835	0.33203276691948613	0.0179	0.388519192664307	-0.15419232618468098	0.023	0.5140522823756783	-0.2667760163740177	0.2179	0.43052539785332394	-0.28296357373708547	0.1804	0.3404340553433897	-0.23047986743770227	-0.0119	0.8308229086565132	0.8290460643351899	-0.0301	1.017136578507944	0.3938768819268795	-0.0179	1.019591771733505	-0.09931412825654846	0.023	1.1939101676116128	-0.20657580577592416	0.2179	1.2041169542841244	-0.1817485341239018	0.1804	0.9794245306283528	-0.1769177935001847	-0.0119	0.9080371269335891	1.4470865117130183	-0.0008	1.0597767178077364	1.7402781967488967	0.0655	1.0831408239036626	1.550557854194435	0.1076	0.6591938107288198	1.3628343563361491	-0.01275	0.539012472936381	1.0122085286480913	0.0119	0.6209344258833077	0.7122740497835192	0.0002	1.050366429500797	1.3130609358265994	0.01275	1.064062223934955	0.9938227701022305	-0.0119	1.140290729600027	0.714640282749859	-0.0002
437	7.283333333333333	0.7303768192696005	0.8192791313394061	0.0301	0.5993512183114658	0.8298587496786114	0.0301	0.5110685665426088	0.33264411067387734	0.0179	0.3878860458580348	-0.1535593959313416	0.023	0.5137298133123067	-0.2663768567320471	0.2179	0.43056037611480313	-0.2828699277582544	0.1804	0.34014793244749253	-0.23055376811256104	-0.0119	0.831263445744448	0.8300168995258063	-0.0301	1.0172444825537783	0.3951752065063482	-0.0179	1.0197069291312628	-0.09935659563991558	0.023	1.193427390269576	-0.20611460250335403	0.2179	1.204008554396496	-0.1813108590925138	0.1804	0.9795566224217173	-0.1768872381479601	-0.0119	0.9090099884185423	1.4453868283156106	-0.0008	1.0615774188990064	1.7393758716022414	0.0655	1.0849369398811148	1.5493669470023737	0.1076	0.6608918836512444	1.362886680232104	-0.01275	0.5389917920114078	1.0122761048081959	0.0119	0.6206415352204091	0.7121946378275541	0.0002	1.0522346014388837	1.3116117361785424	0.01275	1.065777162968579	0.9935685713705952	-0.0119	1.1412516449212842	0.7137401104732172	-0.0002
438	7.3	0.7311528589798545	0.8205421833401919	0.0301	0.6002262401062155	0.8313342410463546	0.0301	0.5107286880995777	0.33278246704400655	0.0179	0.38724875136309783	-0.15289638806061062	0.023	0.5133258282396547	-0.2660927135407101	0.2179	0.4304112815844786	-0.2829467058179567	0.1804	0.3399002317140396	-0.23077170440341524	-0.0119	0.8315260055261735	0.8314414454334146	-0.0301	1.0172529558868992	0.3968811878625006	-0.0179	1.0197298003073345	-0.09949957896181436	0.023	1.1931769400983894	-0.20616805032207164	0.2179	1.2038670489255827	-0.1813047074568802	0.1804	0.9795726269656816	-0.17710757789828305	-0.0119	0.9100124935973882	1.4435863610917554	-0.0008	1.064045610680109	1.738259811516098	0.0655	1.086575093782087	1.5473844247172723	0.1076	0.6626688020820742	1.3630160021946216	-0.01275	0.53876494104682	1.0123869986210912	0.0119	0.6201088854353256	0.7120717063275175	0.0002	1.0542262499179937	1.3100214406504502	0.01275	1.0675753902632512	0.9933967279181456	-0.0119	1.1425006587422328	0.7129027438227221	-0.0002
439	7.316666666666666	0.7318519122521705	0.8212581859134844	0.0301	0.6009860856270789	0.8320263429825792	0.0301	0.5104345331238601	0.3325218195913373	0.0179	0.3868486858036441	-0.15226492730270524	0.023	0.5128319577911952	-0.26594313667768266	0.2179	0.430134411522536	-0.2830329098031952	0.1804	0.33990752269450203	-0.23101053770624294	-0.0119	0.8318415955554767	0.8323729180553762	-0.0301	1.0172813957035485	0.3981830505667854	-0.0179	1.0196311941512832	-0.09948784269578022	0.023	1.193208119768238	-0.20633770094138248	0.2179	1.2039762048814304	-0.18159150266702934	0.1804	0.9795209186939637	-0.17742489969089967	-0.0119	0.9112689108745721	1.4419308524819479	-0.0008	1.0670896377633223	1.73699188478555	0.0655	1.0880895175437524	1.5448824528039362	0.1076	0.6644151317021711	1.3631439814798596	-0.01275	0.5383530140954951	1.0124492117598778	0.0119	0.6193779438341985	0.7117710168999899	0.0002	1.0564886786631758	1.3084994402038974	0.01275	1.06954524928766	0.9931870538935075	-0.0119	1.1437920650017113	0.7121383073081211	-0.0002
440	7.333333333333333	0.7325454205449892	0.8211693617590745	0.0301	0.601496775471755	0.832001662638563	0.0301	0.5104777317589538	0.3322475133031416	0.0179	0.3868080798927292	-0.151827095591868	0.023	0.5123257272085154	-0.2659309170737901	0.2179	0.4299524121286367	-0.28284795966286	0.1804	0.34023714446331216	-0.23109951983188953	-0.0119	0.8324164951516264	0.832638293037997	-0.0301	1.0174779254172193	0.398619176870009	-0.0179	1.0193085045391723	-0.09936581926159958	0.023	1.1930993391371938	-0.20678925938514453	0.2179	1.2040565032182278	-0.18205734652078032	0.1804	0.9794263461104216	-0.17750168516009154	-0.0119	0.912894648686496	1.4405030764056745	-0.0008	1.0705535906140882	1.7352736200035033	0.0655	1.0895938322327003	1.5421316704420993	0.1076	0.6660574958980789	1.3631752787148508	-0.01275	0.5378360576977387	1.0124045494789402	0.0119	0.618507585017431	0.7112466173500368	0.0002	1.0589787467413232	1.3072671956515616	0.01275	1.0716469252687737	0.9928968195857041	-0.0119	1.145072713440956	0.7114577720693082	-0.0002
441	7.35	0.7332443396275264	0.8205591283060886	0.0301	0.6016703886961298	0.8318426647962724	0.0301	0.5109580855513992	0.33225130692198984	0.0179	0.38711294640150873	-0.15170209244726646	0.023	0.5118950317210403	-0.2660804057987113	0.2179	0.4299787787280392	-0.28237693565980304	0.1804	0.3407529811222778	-0.23097248959942773	-0.0119	0.8332564568961804	0.832664826520642	-0.0301	1.017912750167517	0.39841879313338346	-0.0179	1.0187957581547291	-0.0992642177015753	0.023	1.1926070541953417	-0.20773594064383857	0.2179	1.2037783227264554	-0.18264202878153707	0.1804	0.9793158287977686	-0.177144281267516	-0.0119	0.9149957930403869	1.4393142260372869	-0.0008	1.0743716761280069	1.7330114893512298	0.0655	1.0913088621758198	1.5394488524772034	0.1076	0.6676883416544978	1.3630730757337033	-0.01275	0.537316383329937	1.0122465842238095	0.0119	0.617603218407025	0.7104763094048369	0.0002	1.0615428366804571	1.3062853346399939	0.01275	1.0737740909277402	0.9923935441009034	-0.0119	1.1464457121517069	0.7108085068738068	-0.0002
442	7.366666666666666	0.7338772006722216	0.8198326874061225	0.0301	0.6015704930353979	0.8317941015889427	0.0301	0.5115765001635256	0.33248958898668646	0.0179	0.3876302058404109	-0.1518527606285659	0.023	0.5115777013152764	-0.26637253160681923	0.2179	0.4300340722458135	-0.28186817748353377	0.1804	0.3412107982008765	-0.23066413202898042	-0.0119	0.8342570786643223	0.8327219635745912	-0.0301	1.0185779585226422	0.398029698979686	-0.0179	1.018332629574968	-0.09917240661563854	0.023	1.1920465076082603	-0.208774639242347	0.2179	1.2032826547422368	-0.18321468213106673	0.1804	0.9793285688057164	-0.17653431775656137	-0.0119	0.9176985035194732	1.4383291627746568	-0.0008	1.0784569271545725	1.7307261907011524	0.0655	1.0935403057616808	1.5372402299887344	0.1076	0.669483752461879	1.3628611223023468	-0.01275	0.5369458198053465	1.0120466133452002	0.0119	0.616818747805351	0.7094560353184414	0.0002	1.0641638562976388	1.3053179911477233	0.01275	1.0758685679557662	0.9914246493480178	-0.0119	1.1478958090420188	0.710082218959044	-0.0002
